<?xml version="1.0" encoding="UTF-8"?>
<svg xmlns="http://www.w3.org/2000/svg" xml:space="preserve" id="katman_1" x="0" y="0"
	style="enable-background:new 0 0 600 450" version="1.0" viewBox="0 0 600 450">
  <style>.st0{fill:#d54215}</style>
  <path d="M239.3 206.6c0-1.5.6-2.9 1.6-4 1.1-1.1 2.5-1.6 4-1.6h24.4c2.2 0 4.3.8 6 2.2 1.7 1.4 2.8 3.3 3.2 5.5.4 2.2 0 4.4-1 6.3-1.1 1.9-2.8 3.4-4.8 4.2l-18.9 7c-2.5.9-4.7 2.4-6.2 4.6-1.6 2.1-2.5 4.7-2.6 7.3-.1 2.6.6 5.2 2 7.5 1.4 2.2 3.4 4 5.8 5.1l35.4 16.1v-12.3l-30.9-13.7c-.4-.2-.8-.5-1-.9-.2-.4-.4-.8-.3-1.3 0-.5.2-.9.4-1.2.3-.4.6-.6 1.1-.8l19.4-6.7c4.5-1.7 8.3-5 10.6-9.2 2.4-4.2 3.2-9.1 2.3-13.8-.9-4.7-3.4-9-7.1-12.1-3.7-3.1-8.4-4.8-13.2-4.8H245c-4.5 0-8.8 1.8-11.9 4.9-3.2 3.2-4.9 7.5-4.9 11.9V265h11.3l-.2-58.4zM301.4 189.7h11.3v75.1h-11.3v-75.1zM146 189.7l-20.2 62.5c-.1.4-.4.7-.7.9-.3.2-.7.4-1.1.4-.4 0-.8-.1-1.1-.4-.3-.2-.6-.6-.7-.9L102 189.7H90.3l21.3 66c.9 2.6 2.5 4.9 4.8 6.6 2.2 1.6 4.9 2.5 7.7 2.5s5.5-.9 7.7-2.5 3.9-3.9 4.8-6.6l21.3-66H146zM380.3 264.8l20.2-62.5c.1-.4.4-.7.7-.9.3-.2.7-.4 1.1-.4.4 0 .8.1 1.1.4.3.2.6.6.7.9l20.2 62.5H436l-21.3-66c-.9-2.6-2.5-4.9-4.8-6.6-2.2-1.6-4.9-2.5-7.7-2.5s-5.5.9-7.7 2.5-3.9 3.9-4.8 6.6l-21.3 66h11.9zM180.9 201h35.7v-11.3h-35.7c-5 0-9.8 2-13.3 5.5s-5.5 8.3-5.5 13.3V246c0 5 2 9.8 5.5 13.3s8.3 5.5 13.3 5.5h35.7v-11.3h-35.7c-2 0-3.9-.8-5.3-2.2-1.4-1.4-2.2-3.3-2.2-5.3v-13.2H209v-11.1h-35.7v-13.2c0-2 .8-3.9 2.2-5.3 1.5-1.4 3.4-2.2 5.4-2.2zM376.8 189.7H322V201h21.8v63.8h11.3V201h21.8v-11.3zM477.8 264.8c5.7-.1 11.1-2.4 15.1-6.4s6.2-9.5 6.2-15.2c0-5.7-2.2-11.1-6.2-15.2-4-4-9.4-6.3-15.1-6.4H459c-2.7 0-5.4-1.1-7.3-3-1.9-1.9-3-4.6-3-7.3s1.1-5.4 3-7.3c1.9-1.9 4.6-3 7.3-3h36.6v-11.3H459c-5.7.1-11.1 2.4-15.1 6.4s-6.2 9.5-6.2 15.2c0 5.7 2.2 11.1 6.2 15.2 4 4 9.4 6.3 15.1 6.4h18.8c2.7 0 5.4 1.1 7.3 3 1.9 1.9 3 4.6 3 7.3s-1.1 5.4-3 7.3c-1.9 1.9-4.6 3-7.3 3h-36.6v11.3h36.6zM502 189.7h-1v-4.6h-1.6v-.9h4.2v.9H502v4.6zm5.2-1.3.3-1 1.2-3.2h1.1v5.5h-.8v-3.6l-.3.8-1.1 2.8h-.8l-1.1-2.8-.3-.8v3.6h-.9v-5.5h1.1l1.2 3.2.4 1z" class="st0"></path>
</svg>